<svg xmlns="http://www.w3.org/2000/svg" xmlns:xlink="http://www.w3.org/1999/xlink" width="172.223" height="33.734" viewBox="0 0 172.223 33.734"><defs><linearGradient id="a" x1="-0.399" y1="0.805" x2="0.637" y2="0.014" gradientUnits="objectBoundingBox"><stop offset="0.44" stop-color="#2fafcc"/><stop offset="0.502" stop-color="#2ba9c6"/><stop offset="0.585" stop-color="#209ab5"/><stop offset="0.679" stop-color="#0d8199"/><stop offset="0.739" stop-color="#006f84"/></linearGradient><linearGradient id="b" y1="0.5" x2="1" y2="0.5" gradientUnits="objectBoundingBox"><stop offset="0.126" stop-color="#36b3d0"/><stop offset="1" stop-color="#00879f"/></linearGradient></defs><g transform="translate(-5945.679 134.062)"><path d="M6040.649-131.307v23.657h23.656v-23.657Zm18.777,18.778h-13.9v-13.9h13.9Z" fill="#006f84"/><path d="M6040.648-131.307v30.979l12.2-12.2h-7.322v-13.9h13.9v7.322l4.879-4.879v-7.322Z" fill="url(#a)"/><path d="M6035.024-126.014l-2.815-.082v.793l1.617.328q-.869,3.5-1.976,7-.482,1.557-1.139,3.485t-1.228,3.54L6024.572-125l1.707-.3v-.793l-3.264.082-3.264-.082v.792l1.591.356q1.71,3.661,3.3,7.705l3.306,9.475a11.288,11.288,0,0,1-1.911,2.871,4.435,4.435,0,0,1-3.443,1.681,12.158,12.158,0,0,1-2.9-.647l-.853,2.823a11.583,11.583,0,0,0,2.043.434,6.232,6.232,0,0,0,5.384-2.111,19.846,19.846,0,0,0,3.869-6.267l3.025-7.982q1.527-3.936,3.594-8.009l1.047-.328v-.793Z" fill="#fff"/><path d="M6070.018-114.089a47.121,47.121,0,0,1-.234,5.063l-2.011.39v.868l3.5-.09,3.2.09v-.868l-2.127-.39v-13.057l.091-7.816,7.816,22.131h2.365l7.788-22.13.209,15.9-.209,4.971-2.007.39v.868l3.624-.09,6.794.03,6.948.18a11.492,11.492,0,0,0,8.565-3.684,12.326,12.326,0,0,0,3.564-8.894q0-5.181-2.68-8.131t-7.652-2.95l-8.745.18-3.59-.086v0l-.081,0-.072,0v0l-4.014.087-2.158,0-6.929,20.411-7.08-20.409H6072.6l-4.313-.09v.9l1.707.329q.18.06.18,1.378S6070.071-116.978,6070.018-114.089Zm27.071-15.87a3.635,3.635,0,0,1,.149.794,12.269,12.269,0,0,1,.06,1.3l.09,2.875V-114l-.09,2.9c-.031.766-.083,1.99-.1,2.05a7.041,7.041,0,0,1-1.673.32,8.464,8.464,0,0,1-1.858-.373,24.969,24.969,0,0,1-.214-2.676l-.043-2.209-.179-10.961V-129.9a12.075,12.075,0,0,1,1.946-.236A15.153,15.153,0,0,1,6097.089-129.959Zm17,14.32a10.06,10.06,0,0,1-1.783,3.464,8.325,8.325,0,0,1-6.767,2.91,11.9,11.9,0,0,1-1.243-.061q-.584-.059-1.273-.15-1.167-.18-2.486-.509V-129.12q1.048-.27,1.513-.359a5.805,5.805,0,0,1,1.093-.091c.719-.079,1.223-.12,1.513-.12h1.092a8.484,8.484,0,0,1,6.558,2.6,9.739,9.739,0,0,1,2.4,6.883A15.781,15.781,0,0,1,6114.084-115.639Z" fill="#fff"/><path d="M6040.648-131.307l4.879,4.879h13.9v13.9l4.879,4.879v-23.657Z" fill="url(#b)"/><path d="M6011.823-112.23a9.364,9.364,0,0,1-3.205,3.414,10.434,10.434,0,0,1-2.305,1.078,8.142,8.142,0,0,1-2.456.359,7.908,7.908,0,0,1-6.125-2.392,9.526,9.526,0,0,1-2.2-6.7,10.348,10.348,0,0,1,2.606-7.1,8.136,8.136,0,0,1,6.319-2.945,6.768,6.768,0,0,1,5,1.766,6.133,6.133,0,0,1,1.827,4.758l.119,1.292h-13.057v1.947a7.828,7.828,0,0,0,1.678,5.241,5.662,5.662,0,0,0,4.554,1.976,7.722,7.722,0,0,0,2.1-.27,6.323,6.323,0,0,0,1.827-.853,9.754,9.754,0,0,0,1.467-1.183,6.925,6.925,0,0,0,.929-1.108Zm-13.267-7.936,8.26-.18,1.653-.119a5.037,5.037,0,0,0-1.022-3.422,3.787,3.787,0,0,0-3-1.161,5.686,5.686,0,0,0-4.415,1.977A7.462,7.462,0,0,0,5998.556-120.166Z" fill="#fff"/><path d="M5950.411-114.417a10.2,10.2,0,0,0,.494,3.736,1.722,1.722,0,0,0,1.692,1.146,2.784,2.784,0,0,0,1.5-.409,7.749,7.749,0,0,0,1.138-.849l.628.624a6.1,6.1,0,0,1-.838,1.068q-.33.357-.779.772a3.991,3.991,0,0,1-2.786.95,3.4,3.4,0,0,1-2.679-1.136,4.626,4.626,0,0,1-1-3.169v-12.885l-2.1.15v-1.037l2.1-.61-.179-4.263,2.964-.806-.149,5.129,4.492-.06-.659,1.558h-3.833Z" fill="#fff"/><path d="M5961.976-114.686l.12,5.66,2.036.39v.868l-3.474-.09-3.5.09v-.868l2.1-.39.09-5.63v-3.773l-.18-5.93-2.276-.359v-.9q.758-.09,1.457-.194t.819-.135l2.223-.569h.652l-.06,4.821Z" fill="#fff"/><path d="M5992.373-114.686l.149,5.66,2.187.39v.868l-3.654-.09-1.438.09v-.868l.12-.39v-9.942a7.687,7.687,0,0,0-.853-4.013,2.981,2.981,0,0,0-2.74-1.378,4.1,4.1,0,0,0-3.534,1.887,7.809,7.809,0,0,0-.973,2.171,10.141,10.141,0,0,0-.344,2.77v2.845l.179,5.66,2.066.39v.868l-3.564-.09-3.623.09v-.868l2.216-.39.09-5.63v-4.312a7.725,7.725,0,0,0-.854-3.984,3.02,3.02,0,0,0-2.8-1.407,3.97,3.97,0,0,0-3.594,2.1,9.578,9.578,0,0,0-.9,2.29,10.757,10.757,0,0,0-.33,2.71v2.576l.181,5.66,2.066.39v.868l-3.564-.09-3.474.09v-.868l2.067-.39.09-5.63v-3.863l-.15-5.93-2.276-.389v-.868a9.094,9.094,0,0,0,1.048-.045q.359-.045,1.318-.225t2.186-.539h.748l-.3,3.833a11.674,11.674,0,0,1,3-2.77,5.77,5.77,0,0,1,2.994-1.063,4.648,4.648,0,0,1,3.265,1,6.124,6.124,0,0,1,1.587,3.13,15.757,15.757,0,0,1,2.545-2.681,5.847,5.847,0,0,1,3.954-1.452,4.5,4.5,0,0,1,3.563,1.542,5.9,5.9,0,0,1,1.348,4.028Z" fill="#fff"/><path d="M6012.175-132.267v-.9l2.246-.329c.534-.1,1.274-.289,2.224-.569h.651l-.06,4.816v14.568l.12,5.654,1.977.388v.868l-3.415-.09-3.5.09v-.868l2.1-.388.09-5.624v-11.337l-.18-5.923Z" fill="#fff"/><path d="M5958.805-130.745a1.712,1.712,0,0,1,.51-1.26,2.179,2.179,0,0,1,1.35-.6,1.719,1.719,0,0,1,1.291.571,1.665,1.665,0,0,1,.54,1.26,1.725,1.725,0,0,1-.5,1.275,2.146,2.146,0,0,1-1.336.585,1.931,1.931,0,0,1-1.32-.54A1.9,1.9,0,0,1,5958.805-130.745Z" fill="#fff"/></g></svg>