<svg xmlns="http://www.w3.org/2000/svg" xmlns:xlink="http://www.w3.org/1999/xlink" width="211.203" height="41.37" viewBox="0 0 211.203 41.37"><defs><linearGradient id="a" x1="-0.399" y1="0.805" x2="0.637" y2="0.014" gradientUnits="objectBoundingBox"><stop offset="0.44" stop-color="#2fafcc"/><stop offset="0.502" stop-color="#2ba9c6"/><stop offset="0.585" stop-color="#209ab5"/><stop offset="0.679" stop-color="#0d8199"/><stop offset="0.739" stop-color="#006f84"/></linearGradient><linearGradient id="b" y1="0.5" x2="1" y2="0.5" gradientUnits="objectBoundingBox"><stop offset="0.126" stop-color="#36b3d0"/><stop offset="1" stop-color="#00879f"/></linearGradient></defs><g transform="translate(-2326.933 -2023.125)"><g transform="translate(2326.933 2023.125)"><path d="M2424.226,2025.948v29.011h29.01v-29.011Zm23.026,23.027H2430.21v-17.042h17.042Z" transform="translate(-2307.761 -2022.569)" fill="#006f84"/><path d="M2424.226,2025.948v37.991l14.963-14.964h-8.979v-17.043h17.043v8.98l5.984-5.984v-8.979Z" transform="translate(-2307.761 -2022.569)" fill="url(#a)"/><g transform="translate(89.727 9.769)"><path d="M2421.729,2031.387l-3.452-.1v.972l1.983.4q-1.065,4.291-2.423,8.582-.591,1.91-1.4,4.274t-1.506,4.341l-6.022-17.23,2.093-.369v-.972l-4,.1-4-.1v.972l1.952.436q2.1,4.491,4.049,9.449l4.055,11.619a13.852,13.852,0,0,1-2.344,3.521,5.434,5.434,0,0,1-4.222,2.062,14.9,14.9,0,0,1-3.553-.792l-1.046,3.462a14.235,14.235,0,0,0,2.505.531,7.644,7.644,0,0,0,6.6-2.588,24.4,24.4,0,0,0,4.745-7.685l3.708-9.788q1.874-4.828,4.407-9.823l1.285-.4v-.972Z" transform="translate(-2401.89 -2031.286)" fill="#606060"/></g><path d="M2454.766,2047.063a57.283,57.283,0,0,1-.286,6.209l-2.466.478v1.064l4.3-.11,3.93.11v-1.064l-2.608-.478v-16.013l.111-9.585,9.584,27.139h2.9l9.55-27.139.258,19.5-.258,6.1-2.461.478v1.064l4.445-.11,8.333.037,8.521.22a14.093,14.093,0,0,0,10.5-4.518,15.117,15.117,0,0,0,4.37-10.908q0-6.353-3.287-9.97t-9.384-3.617l-10.723.22-4.4-.105v0l-.1,0-.089,0v0l-4.924.106-2.646,0-8.5,25.031-8.684-25.028h-2.829l-5.289-.11v1.1l2.094.4q.221.074.22,1.689S2454.832,2043.52,2454.766,2047.063Zm33.2-19.462a4.587,4.587,0,0,1,.183.972,15.1,15.1,0,0,1,.073,1.6l.11,3.525v13.479l-.11,3.561c-.038.941-.1,2.442-.126,2.515a8.623,8.623,0,0,1-2.052.393,10.357,10.357,0,0,1-2.278-.458,30.462,30.462,0,0,1-.263-3.28l-.052-2.71-.22-13.442v-6.08a14.815,14.815,0,0,1,2.387-.29A18.553,18.553,0,0,1,2487.965,2027.6Zm20.841,17.561a12.343,12.343,0,0,1-2.186,4.248,10.211,10.211,0,0,1-8.3,3.567,14.937,14.937,0,0,1-1.524-.073q-.717-.074-1.561-.184-1.433-.221-3.049-.625v-23.466q1.286-.33,1.855-.44a7.054,7.054,0,0,1,1.341-.111c.881-.1,1.5-.147,1.854-.147h1.341a10.405,10.405,0,0,1,8.042,3.182,11.949,11.949,0,0,1,2.938,8.442A19.318,19.318,0,0,1,2508.806,2045.162Z" transform="translate(-2302.286 -2022.569)" fill="#606060"/><path d="M2424.226,2025.948l5.984,5.984h17.043v17.043l5.984,5.984v-29.011Z" transform="translate(-2307.761 -2022.569)" fill="url(#b)"/><path d="M2397.984,2048.375a11.488,11.488,0,0,1-3.93,4.186,12.767,12.767,0,0,1-2.827,1.323,9.975,9.975,0,0,1-3.012.44,9.694,9.694,0,0,1-7.51-2.934q-2.7-2.932-2.7-8.213a12.691,12.691,0,0,1,3.2-8.709,9.978,9.978,0,0,1,7.75-3.613,8.3,8.3,0,0,1,6.133,2.167,7.521,7.521,0,0,1,2.241,5.836l.146,1.584h-16.012v2.387a9.6,9.6,0,0,0,2.058,6.427,6.938,6.938,0,0,0,5.584,2.424,9.484,9.484,0,0,0,2.571-.33,7.787,7.787,0,0,0,2.241-1.046,12.046,12.046,0,0,0,1.8-1.451,8.44,8.44,0,0,0,1.14-1.36Zm-16.269-9.732,10.129-.221,2.027-.145a6.18,6.18,0,0,0-1.252-4.2,4.647,4.647,0,0,0-3.684-1.423,6.974,6.974,0,0,0-5.414,2.424A9.137,9.137,0,0,0,2381.715,2038.643Z" transform="translate(-2316.869 -2021.602)" fill="#606060"/><path d="M2332.736,2046.626a12.49,12.49,0,0,0,.606,4.581,2.111,2.111,0,0,0,2.076,1.405,3.4,3.4,0,0,0,1.836-.5,9.386,9.386,0,0,0,1.395-1.041l.771.765a7.388,7.388,0,0,1-1.027,1.311c-.271.291-.588.607-.956.947a4.9,4.9,0,0,1-3.416,1.165,4.164,4.164,0,0,1-3.286-1.393,5.671,5.671,0,0,1-1.23-3.886v-15.8l-2.571.183v-1.271l2.571-.748-.22-5.229,3.635-.988-.183,6.289,5.509-.073-.808,1.909h-4.7Z" transform="translate(-2326.933 -2022.534)" fill="#606060"/><path d="M2344.657,2045.363l.146,6.942,2.5.477v1.065l-4.26-.11-4.3.11v-1.065l2.571-.477.11-6.9v-4.628l-.22-7.272-2.792-.44v-1.1q.93-.111,1.787-.238t1-.165l2.727-.7h.8l-.074,5.914Z" transform="translate(-2324.671 -2021.602)" fill="#606060"/><path d="M2380.271,2045.363l.183,6.942,2.681.477v1.065l-4.481-.11-1.763.11v-1.065l.147-.477v-12.193a9.429,9.429,0,0,0-1.046-4.921,3.656,3.656,0,0,0-3.36-1.69,5.035,5.035,0,0,0-4.334,2.314,9.6,9.6,0,0,0-1.194,2.663,12.458,12.458,0,0,0-.421,3.4v3.488l.22,6.942,2.534.477v1.065l-4.37-.11-4.445.11v-1.065l2.719-.477.11-6.9v-5.289a9.47,9.47,0,0,0-1.047-4.885,3.7,3.7,0,0,0-3.433-1.726,4.873,4.873,0,0,0-4.408,2.572,11.841,11.841,0,0,0-1.1,2.81,13.17,13.17,0,0,0-.4,3.323v3.159l.222,6.942,2.533.477v1.065l-4.369-.11-4.26.11v-1.065l2.534-.477.11-6.9v-4.738l-.184-7.272-2.79-.477v-1.065a11.059,11.059,0,0,0,1.284-.055q.442-.056,1.616-.275t2.681-.662h.918l-.367,4.7a14.355,14.355,0,0,1,3.673-3.4,7.084,7.084,0,0,1,3.673-1.3,5.7,5.7,0,0,1,4,1.231,7.513,7.513,0,0,1,1.946,3.839,19.3,19.3,0,0,1,3.122-3.288,7.173,7.173,0,0,1,4.848-1.781,5.523,5.523,0,0,1,4.37,1.892,7.238,7.238,0,0,1,1.652,4.94Z" transform="translate(-2323.008 -2021.602)" fill="#606060"/><path d="M2395.056,2025.326v-1.1l2.754-.4q.981-.183,2.727-.7h.8l-.073,5.906V2046.9l.146,6.933,2.424.477v1.064l-4.186-.11-4.3.11v-1.064l2.571-.477.11-6.9v-13.9l-.22-7.262Z" transform="translate(-2313.509 -2023.125)" fill="#606060"/><path d="M2340.381,2026.9a2.1,2.1,0,0,1,.625-1.545,2.666,2.666,0,0,1,1.655-.736,2.1,2.1,0,0,1,1.583.7,2.042,2.042,0,0,1,.663,1.545,2.123,2.123,0,0,1-.607,1.565,2.633,2.633,0,0,1-1.639.717,2.363,2.363,0,0,1-1.618-.662A2.325,2.325,0,0,1,2340.381,2026.9Z" transform="translate(-2324.283 -2022.831)" fill="#606060"/></g></g></svg>